<svg id="Capa_1" enable-background="new 0 0 512 512" height="512" viewBox="0 0 512 512" width="512" xmlns="http://www.w3.org/2000/svg"><g><path d="m124.868 114.128c0-22.479-18.288-40.767-40.767-40.767s-40.767 18.288-40.767 40.767 18.288 40.767 40.767 40.767 40.767-18.288 40.767-40.767zm-40.767 25.766c-14.208 0-25.767-11.559-25.767-25.767s11.559-25.767 25.767-25.767 25.767 11.559 25.767 25.767-11.559 25.767-25.767 25.767z"/><path d="m97.719 207.984h-27.236c-4.142 0-7.5 3.358-7.5 7.5s3.358 7.5 7.5 7.5h27.236c4.142 0 7.5-3.358 7.5-7.5s-3.358-7.5-7.5-7.5z"/><path d="m97.719 246.586h-27.236c-4.142 0-7.5 3.358-7.5 7.5s3.358 7.5 7.5 7.5h27.236c4.142 0 7.5-3.358 7.5-7.5s-3.358-7.5-7.5-7.5z"/><path d="m97.719 433.163h-27.236c-4.142 0-7.5 3.358-7.5 7.5s3.358 7.5 7.5 7.5h27.236c4.142 0 7.5-3.358 7.5-7.5s-3.358-7.5-7.5-7.5z"/><path d="m237.303 73.361c-22.479 0-40.767 18.288-40.767 40.767s18.288 40.767 40.767 40.767 40.767-18.288 40.767-40.767-18.289-40.767-40.767-40.767zm0 66.533c-14.208 0-25.767-11.559-25.767-25.767s11.559-25.767 25.767-25.767 25.767 11.559 25.767 25.767-11.56 25.767-25.767 25.767z"/><path d="m250.921 207.984h-27.236c-4.142 0-7.5 3.358-7.5 7.5s3.358 7.5 7.5 7.5h27.236c4.142 0 7.5-3.358 7.5-7.5s-3.358-7.5-7.5-7.5z"/><path d="m250.921 246.586h-27.236c-4.142 0-7.5 3.358-7.5 7.5s3.358 7.5 7.5 7.5h27.236c4.142 0 7.5-3.358 7.5-7.5s-3.358-7.5-7.5-7.5z"/><path d="m250.921 433.163h-27.236c-4.142 0-7.5 3.358-7.5 7.5s3.358 7.5 7.5 7.5h27.236c4.142 0 7.5-3.358 7.5-7.5s-3.358-7.5-7.5-7.5z"/><path d="m399.975 150.536c22.443-1.964 39.023-21.715 37.059-44.165-1.968-22.486-21.763-39.024-44.164-37.059-22.442 1.964-39.023 21.715-37.059 44.165 1.972 22.538 21.825 39.013 44.164 37.059zm-29.221-38.367c-1.242-14.185 9.233-26.673 23.422-27.914 14.152-1.244 26.671 9.206 27.914 23.422 1.242 14.185-9.233 26.673-23.422 27.914-14.037 1.238-26.661-9.098-27.914-23.422z"/><path d="m392.343 219.553 27.132-2.374c4.127-.361 7.179-3.999 6.818-8.125s-4.004-7.172-8.125-6.818l-27.132 2.374c-4.127.361-7.179 3.999-6.818 8.125.359 4.098 3.962 7.176 8.125 6.818z"/><path d="m395.045 258.037c.524 0 27.232-2.354 27.795-2.403 4.127-.361 7.179-3.999 6.818-8.125s-4.002-7.169-8.125-6.818l-27.133 2.374c-4.127.361-7.179 3.999-6.818 8.125.342 3.905 3.616 6.847 7.463 6.847z"/><path d="m411.307 443.903c.219 0 .44-.01.662-.029l27.132-2.374c4.127-.361 7.179-3.999 6.818-8.125s-4.001-7.169-8.125-6.818l-27.132 2.374c-4.127.361-7.179 3.999-6.818 8.125.342 3.904 3.616 6.847 7.463 6.847z"/><path d="m511.924 465.083-4.382-50.088c-.361-4.126-3.999-7.174-8.125-6.817-4.127.361-7.179 3.999-6.818 8.125l4.382 50.086c.014.151.02.301.02.45 0 2.553-1.998 4.728-4.549 4.951l-127.293 11.137c-.044.003-.088.006-.131.01l-.321.029c-2.733.241-5.165-1.829-5.401-4.53l-37.882-432.981c-.013-.152-.02-.304-.02-.454 0-2.552 1.998-4.725 4.484-4.943 33.832-2.65 14.981-1.053 129.383-11.071 2.066.481 3.639 2.258 3.827 4.419l30.449 348.03c.361 4.127 4.014 7.183 8.125 6.817 4.127-.361 7.179-3.999 6.818-8.125l-30.448-348.029c-.825-9.447-8.26-17.066-17.677-18.118-.492-.054-.99-.062-1.485-.018-115.591 10.123-96.588 8.511-130.233 11.146-3.666.321-7.003 1.606-9.802 3.574-3.552-3.233-8.254-5.224-13.424-5.224h-128.236c-4.722 0-9.06 1.655-12.483 4.404-3.424-2.749-7.761-4.404-12.483-4.404h-128.236c-11.019 0-19.983 8.965-19.983 19.983v67.491c0 4.142 3.358 7.5 7.5 7.5s7.5-3.358 7.5-7.5v-67.491c0-2.748 2.235-4.983 4.983-4.983h128.236c2.748 0 4.983 2.235 4.983 4.983v434.639c0 2.748-2.235 4.983-4.983 4.983h-128.236c-2.748 0-4.983-2.235-4.983-4.983v-332.147c0-4.142-3.358-7.5-7.5-7.5s-7.5 3.358-7.5 7.5v332.148c0 11.019 8.964 19.983 19.983 19.983h128.236c4.722 0 9.059-1.655 12.483-4.404 3.424 2.749 7.761 4.404 12.483 4.404h128.236c11.019 0 19.982-8.964 19.982-19.983v-260.753l22.958 262.414c.91 10.4 9.462 18.242 19.894 18.242 1.879 0-1.694.225 129.504-11.253 10.399-.91 18.241-9.463 18.241-19.894 0-.583-.025-1.172-.076-1.755zm-205.521 12.998c0 2.748-2.235 4.983-4.982 4.983h-128.236c-2.748 0-4.983-2.235-4.983-4.983v-434.639c0-2.748 2.235-4.983 4.983-4.983h128.236c2.747 0 4.982 2.235 4.982 4.983z"/></g></svg>